<?xml version="1.0" encoding="UTF-8" standalone="no"?>
<svg width="16px" height="14px" viewBox="0 0 16 14" version="1.1" xmlns="http://www.w3.org/2000/svg" xmlns:xlink="http://www.w3.org/1999/xlink">
    <!-- Generator: Sketch 40.2 (33826) - http://www.bohemiancoding.com/sketch -->
    <title>Shape</title>
    <desc>Created with Sketch.</desc>
    <defs></defs>
    <g id="Welcome" stroke="none" stroke-width="1" fill="none" fill-rule="evenodd">
        <g id="-首页&gt;-资料管理&gt;分类管理&gt;资料分类管理（添加分类）" transform="translate(-239.000000, -232.000000)" fill="#E1C26D">
            <g id="Group" transform="translate(205.000000, 178.000000)">
                <g id="Group-17">
                    <g id="Group-21">
                        <g id="Group-19" transform="translate(0.000000, 2.000000)">
                            <path d="M48.2511286,64.7246862 C48.2511286,65.2777543 47.8025263,65.724431 47.2505458,65.724431 L34.7500716,65.724431 L36.5006547,57.638963 C36.5006547,57.0865367 36.9465647,56.6388081 37.4984739,56.6388081 L49.0011467,56.6388081 C49.5532164,56.6388081 50,57.0865367 50,57.638963 L48.2511286,64.7246862 L48.2511286,64.7246862 Z M36.7493294,55.8883442 L48.0005639,55.8883442 L48.0005639,54.9062867 C48.0005639,54.3538426 47.5518546,53.9061318 47.0008369,53.9061318 L41.000799,53.9061318 L41.000799,52.999727 C41.000799,52.4481744 40.5529812,52 40.0009829,52 L34.999727,52 C34.4476395,52 34,52.4481744 34,52.999727 L34,64.7246862 L35.7488536,56.8889449 C35.7488536,56.3364294 36.1974381,55.8883442 36.7493473,55.8883442 L36.7493473,55.8883442 L36.7493473,55.8883442 L36.7493473,55.8883442 L36.7493473,55.8883442 L36.7493294,55.8883442 Z" id="Shape"></path>
                        </g>
                    </g>
                </g>
            </g>
        </g>
    </g>
</svg>